<svg width="32" height="32" fill="none" xmlns="http://www.w3.org/2000/svg"><circle cx="16" cy="16" r="16" fill="#EFEFEF"/><path d="M24 14.999h2C26 9.869 22.127 6 16.99 6v2C21.052 8 24 10.943 24 14.999z" fill="#656565"/><path d="M17 12c2.103 0 3 .897 3 3h2c0-3.225-1.775-5-5-5v2zm3.422 5.443a1.001 1.001 0 00-1.39.043l-2.394 2.461c-.576-.11-1.734-.47-2.926-1.66-1.192-1.193-1.553-2.354-1.66-2.926l2.46-2.394a1 1 0 00.042-1.39L10.86 7.512a1 1 0 00-1.39-.087L7.3 9.286a1 1 0 00-.29.65c-.016.25-.302 6.171 4.29 10.765C15.305 24.707 20.323 25 21.705 25c.202 0 .326-.006.36-.008a.991.991 0 00.647-.29l1.86-2.172a1 1 0 00-.086-1.39l-4.064-3.697z" fill="#656565"/></svg>