<svg width="32" height="32" fill="none" xmlns="http://www.w3.org/2000/svg"><circle cx="16" cy="16" r="16" fill="#EFEFEF"/><path fill-rule="evenodd" clip-rule="evenodd" d="M26 7a2 2 0 012 2v14a2 2 0 01-2 2H6a2 2 0 01-2-2V9a2 2 0 012-2h20zM12.602 17.594L6.71 23.416H25.1l-5.829-5.762L16 19.918l-3.398-2.324zm13.766-4.844l-5.755 3.98 5.755 5.683V12.75zm-20.735.074v9.403l5.623-5.557-5.623-3.846zM25.98 8.585H6.038a.43.43 0 00-.3.103.312.312 0 00-.102.267v1.944L16 17.987l10.373-7.158V9.04c.001-.161-.036-.277-.11-.35a.367.367 0 00-.281-.104h-.002z" fill="#656565"/></svg>