<svg width="30" height="27" fill="none" xmlns="http://www.w3.org/2000/svg"><g clip-path="url(#clip0_402:388)"><path d="M7.346 26.867V13.03L3.985 9.104.971 6.926v17.5c0 1.35.857 2.442 1.912 2.442h4.463z" fill="#4285F4"/><path d="M22.648 26.867h4.463c1.059 0 1.913-1.095 1.913-2.442v-17.5L25.61 9.422l-2.962 3.61v13.836z" fill="#34A853"/><path d="M7.346 13.03L6.89 7.624l.457-5.175 7.65 7.326 7.652-7.326.511 4.895-.511 5.686-7.651 7.326-7.65-7.326z" fill="#EA4335"/><path d="M22.648 2.449v10.58l6.376-6.104V3.67c0-3.02-2.7-4.742-4.59-2.93l-1.786 1.709z" fill="#FBBC04"/><path d="M.97 6.925l2.933 2.808 3.443 3.297V2.449L5.561.739C3.668-1.07.971.65.971 3.67v3.256z" fill="#C5221F"/></g><defs><clipPath id="clip0_402:388"><path fill="#fff" transform="translate(.97)" d="M0 0h28.053v27H0z"/></clipPath></defs></svg>